<svg width="170" height="29" viewBox="0 0 170 29" fill="none" xmlns="http://www.w3.org/2000/svg">
<g id="Group 5134">
<g id="#252525ff">
<path id="Vector" d="M12.6588 1.20327C16.0295 0.754209 19.5605 1.6256 22.2976 3.64905C25.6308 6.04404 27.7371 10.0615 27.7692 14.1699C27.8574 17.2518 26.8016 20.3418 24.877 22.7448C22.4099 25.8909 18.4512 27.8128 14.4471 27.7727C10.4322 27.8235 6.45753 25.8936 3.98235 22.7368C2.06048 20.3311 1.00732 17.2411 1.09821 14.1592C1.13563 10.2433 3.04948 6.40221 6.12608 3.98584C7.99984 2.48897 10.2852 1.52135 12.6588 1.20327ZM13.8029 9.03777C12.9181 9.98668 13.1827 11.3793 13.1453 12.5608C12.5305 12.5715 11.9158 12.5741 11.301 12.5795C11.301 13.2905 11.301 13.9988 11.301 14.7098C11.9158 14.7098 12.5305 14.7098 13.1453 14.7098C13.1426 16.5462 13.1453 18.3825 13.1426 20.2188C13.9018 20.2215 14.6609 20.2215 15.4227 20.2242C15.4334 18.3852 15.4254 16.5488 15.428 14.7098C16.0428 14.7098 16.6576 14.7098 17.2724 14.7072C17.3713 13.9988 17.4649 13.2878 17.5317 12.5768C16.8287 12.5715 16.123 12.5715 15.42 12.5741C15.4601 11.8818 15.3131 11.1334 15.6526 10.4972C16.2166 10.1364 16.9543 10.2967 17.5958 10.2433C17.5932 9.5991 17.5932 8.95491 17.5985 8.31072C16.3235 8.16905 14.7625 7.97927 13.8029 9.03777Z" fill="#252525"/>
<path id="Vector_2" d="M47.9287 1.20317C51.2994 0.751441 54.8304 1.62016 57.5702 3.6436C60.9114 6.03859 63.0231 10.0668 63.0525 14.1805C63.138 17.2571 62.0848 20.339 60.1656 22.742C57.6878 25.8962 53.7184 27.8234 49.7036 27.7726C45.6968 27.8154 41.7381 25.8855 39.2683 22.7394C37.3464 20.3364 36.2933 17.2491 36.3815 14.1725C36.4135 10.2459 38.3354 6.39677 41.42 3.97773C43.2858 2.49155 45.5632 1.52393 47.9287 1.20317ZM44.6944 9.4306C44.0075 9.73532 43.8177 10.735 44.2855 11.307C45.0232 12.2934 47.0279 11.7213 46.8301 10.3849C46.7206 9.40655 45.499 8.98956 44.6944 9.4306ZM47.878 12.6569C47.9207 15.0626 47.9047 17.4683 47.7871 19.8739C48.6291 19.882 49.471 19.882 50.313 19.8766C50.3264 18.508 50.2836 17.1368 50.3237 15.7682C50.2729 15.0519 50.9118 14.4585 51.5987 14.4184C52.2616 14.4906 52.6626 15.116 52.676 15.7442C52.7508 17.1208 52.6813 18.5 52.7054 19.8793C53.5286 19.882 54.3519 19.8793 55.1752 19.8793C55.2741 18.5107 55.258 17.1368 55.2714 15.7629C55.2901 14.8033 55.0415 13.7582 54.2717 13.122C53.0849 12.2533 51.1951 12.28 50.2836 13.539C50.2943 13.3225 50.3157 12.8841 50.3264 12.6649C49.5085 12.6542 48.6932 12.6542 47.878 12.6569ZM44.1786 19.8766C44.9992 19.882 45.8198 19.882 46.643 19.8793C46.643 17.4736 46.643 15.0652 46.643 12.6569C45.8224 12.6569 45.0045 12.6569 44.1866 12.6542C44.1705 15.0626 44.1812 17.4709 44.1786 19.8766Z" fill="#252525"/>
<path id="Vector_3" d="M83.2147 1.2032C86.5854 0.754142 90.1137 1.62019 92.8535 3.64363C96.1921 6.03595 98.301 10.0534 98.3358 14.1645C98.4267 17.2464 97.3708 20.3364 95.4463 22.7421C92.9711 25.8935 89.0044 27.8207 84.9923 27.7726C80.9855 27.8154 77.0214 25.8882 74.5516 22.7394C72.6271 20.331 71.5739 17.2411 71.6648 14.1591C71.7022 10.2432 73.6187 6.40215 76.6953 3.98577C78.5638 2.49158 80.8438 1.52396 83.2147 1.2032ZM79.6276 10.7618C81.2608 12.5741 82.632 14.6082 84.1396 16.5274C82.6962 18.0884 81.3731 19.7564 79.9056 21.296C80.5337 21.2612 81.1672 21.2505 81.7981 21.2425C82.8779 20.037 83.9204 18.7941 85.0056 17.5912C85.9225 18.8074 86.834 20.029 87.7348 21.2586C88.9643 21.2532 90.1939 21.2345 91.4235 21.2853C89.9293 19.4142 88.534 17.4683 87.0665 15.5785C86.6816 15.1775 87.2189 14.79 87.4487 14.4799C88.558 13.2851 89.5657 11.9967 90.6777 10.8045C90.0656 10.8179 89.4562 10.8233 88.8467 10.8152C87.9165 11.9887 86.8393 13.0365 85.9439 14.234C85.1794 13.0579 84.2839 11.9726 83.4847 10.8206C82.199 10.8099 80.908 10.874 79.6276 10.7618Z" fill="#252525"/>
<path id="Vector_4" d="M118.495 1.20305C121.805 0.76201 125.269 1.58529 127.987 3.53389C131.411 5.91819 133.587 9.99715 133.619 14.175C133.707 17.2516 132.651 20.3389 130.732 22.7392C128.313 25.8212 124.464 27.7377 120.543 27.7698C117.466 27.858 114.382 26.8048 111.979 24.883C108.827 22.4105 106.9 18.4464 106.945 14.4343C106.9 10.4275 108.825 6.46347 111.971 3.99097C113.842 2.4941 116.124 1.52381 118.495 1.20305ZM115.125 10.5986C114.424 11.8415 114.644 13.3277 114.609 14.6936C114.644 16.1691 114.384 17.853 115.376 19.0933C116.304 20.2133 117.881 20.2266 119.212 20.2266C120.706 20.1785 122.24 20.379 123.697 19.9487C124.657 19.6359 125.389 18.7859 125.584 17.7996C126.063 16.8346 125.761 15.728 125.817 14.6963C125.758 13.6672 126.073 12.5632 125.592 11.5983C125.384 10.3152 124.256 9.33425 122.983 9.19793C121.273 9.04557 119.551 9.09101 117.838 9.14715C116.779 9.19526 115.67 9.64432 115.125 10.5986Z" fill="#252525"/>
<path id="Vector_5" d="M153.776 1.20577C157.149 0.751367 160.686 1.62009 163.428 3.64888C166.764 6.04387 168.87 10.064 168.902 14.1777C168.991 17.2517 167.937 20.3363 166.018 22.7366C163.543 25.8907 159.574 27.8206 155.562 27.7725C151.555 27.818 147.591 25.8907 145.118 22.7393C143.196 20.3363 142.141 17.249 142.231 14.167C142.266 10.1923 144.239 6.29513 147.396 3.88143C149.237 2.44871 151.464 1.51851 153.776 1.20577ZM150.344 10.334C149.577 10.5158 149.197 11.2829 149.098 12.0046C148.887 13.6057 148.927 15.2309 149.042 16.84C149.101 17.5885 149.301 18.5053 150.055 18.8528C151.052 19.2136 152.129 19.1628 153.175 19.2003C155.53 19.2083 157.906 19.3286 160.25 19.0345C161.231 18.9864 161.747 17.9787 161.798 17.102C161.961 15.3271 161.985 13.5202 161.715 11.756C161.597 10.9515 160.948 10.3073 160.132 10.2458C157.898 10.0801 155.652 10.1763 153.415 10.1522C152.391 10.1923 151.346 10.0908 150.344 10.334Z" fill="#252525"/>
<path id="Vector_6" d="M115.929 11.4378C116.4 10.2536 117.854 10.1654 118.944 10.1601C120.441 10.2323 121.997 9.95961 123.446 10.4568C123.943 10.6305 124.194 11.133 124.523 11.5046L124.403 11.7425C124.432 11.8761 124.486 12.1408 124.515 12.2744C124.761 13.3249 124.584 14.4315 124.638 15.506C124.598 16.4496 124.715 17.5161 124.154 18.3367C123.491 19.1841 122.318 19.0691 121.358 19.1413C119.872 19.1199 118.346 19.2696 116.897 18.8793C115.758 18.433 115.734 17.0617 115.694 16.0326C115.718 14.501 115.568 12.94 115.929 11.4378ZM122.427 11.4779C121.869 11.4191 122.069 12.4695 122.561 12.3011C123.072 12.5765 123.702 12.4081 123.865 11.8066C123.9 11.0047 122.692 10.6706 122.427 11.4779ZM117.383 15.5381L117.266 15.7546L117.399 16.0086L117.643 16.038C118.544 17.9465 121.535 18.0293 122.601 16.2277C123.863 14.493 122.435 11.7665 120.302 11.7959C118.37 11.6062 116.774 13.7125 117.383 15.5381Z" fill="#252525"/>
<path id="Vector_7" d="M81.7981 11.7959C82.1884 11.8173 82.5813 11.836 82.9715 11.8574C85.0458 14.6667 87.1334 17.468 89.2744 20.2238C88.943 20.2051 88.6089 20.1891 88.2774 20.1757C86.1043 17.3931 84.0086 14.5491 81.7981 11.7959Z" fill="#252525"/>
<path id="Vector_8" d="M119.444 13.0391C120.706 12.3147 122.358 13.7902 121.882 15.1374C121.642 16.2173 120.284 16.7679 119.335 16.2413C118.717 15.9633 118.498 15.2897 118.295 14.7017C118.487 14.0468 118.747 13.3037 119.444 13.0391Z" fill="#252525"/>
<path id="Vector_9" d="M154.156 12.812C155.276 13.376 156.369 13.9961 157.505 14.5307C156.372 15.0787 155.262 15.6721 154.145 16.2468C154.161 15.1028 154.153 13.9587 154.156 12.812Z" fill="#252525"/>
</g>
<g id="#606060ff">
<path id="Vector_10" d="M12.9047 0.0837672C17.1093 -0.381331 21.4957 1.12088 24.4948 4.10927C26.9459 6.45348 28.4828 9.70382 28.7983 13.0744C29.2206 17.2871 27.6596 21.6601 24.6311 24.6271C22.2388 27.0675 18.9323 28.567 15.5296 28.8236C11.3918 29.1551 7.13643 27.5914 4.23357 24.6217C1.40823 21.8498 -0.142096 17.8564 0.0102637 13.9084C0.14124 10.3052 1.66751 6.7582 4.24961 4.23223C6.53768 1.89872 9.66239 0.433927 12.9047 0.0837672ZM12.6588 1.20375C10.2852 1.52183 7.9998 2.48945 6.12604 3.98632C3.04944 6.40269 1.13559 10.2438 1.09817 14.1597C1.00729 17.2416 2.06044 20.3316 3.98231 22.7373C6.45749 25.8941 10.4322 27.8239 14.447 27.7732C18.4511 27.8133 22.4098 25.8914 24.877 22.7453C26.8015 20.3423 27.8574 17.2523 27.7692 14.1704C27.7371 10.062 25.6308 6.04451 22.2976 3.64952C19.5604 1.62608 16.0294 0.754685 12.6588 1.20375Z" fill="#606060"/>
<path id="Vector_11" d="M48.1854 0.0833899C52.3873 -0.381709 56.771 1.11783 59.7727 4.10355C62.2934 6.50923 63.849 9.87719 64.1056 13.3467C64.4371 17.4791 62.8734 21.7318 59.9064 24.632C57.5756 27.0083 54.376 28.4918 51.0669 28.8019C46.8542 29.2189 42.4839 27.6552 39.5223 24.6267C36.6889 21.8521 35.1359 17.8453 35.2963 13.8893C35.4299 10.2915 36.9535 6.75247 39.5329 4.23185C41.821 1.90102 44.9431 0.43355 48.1854 0.0833899ZM47.9288 1.20337C45.5632 1.52413 43.2858 2.49174 41.4201 3.97792C38.3355 6.39697 36.4136 10.2461 36.3815 14.1727C36.2933 17.2493 37.3465 20.3366 39.2683 22.7396C41.7382 25.8857 45.6968 27.8155 49.7036 27.7728C53.7184 27.8236 57.6878 25.8964 60.1657 22.7422C62.0849 20.3392 63.138 17.2573 63.0525 14.1807C63.0231 10.067 60.9114 6.03879 57.5702 3.6438C54.8304 1.62035 51.2994 0.751635 47.9288 1.20337Z" fill="#606060"/>
<path id="Vector_12" d="M82.731 0.185208C85.9679 -0.344042 89.376 0.2948 92.212 1.93868C95.719 3.95411 98.3144 7.50115 99.1217 11.4732C100.129 16.0841 98.6619 21.1521 95.326 24.496C92.9818 26.9471 89.7261 28.4867 86.3555 28.8021C82.1429 29.2191 77.7752 27.6608 74.8109 24.635C72.4293 22.3014 70.9431 19.0965 70.633 15.782C70.2161 11.5721 71.7798 7.20445 74.8056 4.24279C76.9199 2.0857 79.7506 0.660999 82.731 0.185208ZM83.2148 1.20361C80.8438 1.52437 78.5638 2.49199 76.6954 3.98618C73.6188 6.40256 71.7022 10.2436 71.6648 14.1595C71.5739 17.2415 72.6271 20.3315 74.5516 22.7398C77.0215 25.8886 80.9855 27.8158 84.9923 27.773C89.0044 27.8211 92.9711 25.8939 95.4463 22.7425C97.3709 20.3368 98.4267 17.2468 98.3358 14.1649C98.3011 10.0538 96.1921 6.03636 92.8535 3.64404C90.1137 1.6206 86.5854 0.754553 83.2148 1.20361Z" fill="#606060"/>
<path id="Vector_13" d="M118.017 0.184935C121.363 -0.363026 124.892 0.339968 127.784 2.10948C131.149 4.15164 133.624 7.61849 134.405 11.4836C135.41 16.0945 133.94 21.1625 130.604 24.501C128.257 26.9495 125.007 28.4864 121.636 28.8019C117.421 29.2188 113.051 27.6551 110.086 24.624C107.64 22.2263 106.144 18.9118 105.892 15.5011C105.569 11.3794 107.13 7.14003 110.089 4.24252C112.203 2.08275 115.037 0.660725 118.017 0.184935ZM118.495 1.20334C116.124 1.5241 113.842 2.49439 111.971 3.99126C108.825 6.46376 106.9 10.4278 106.945 14.4346C106.9 18.4467 108.827 22.4108 111.979 24.8833C114.382 26.8051 117.466 27.8583 120.543 27.7701C124.464 27.738 128.313 25.8215 130.732 22.7395C132.651 20.3392 133.707 17.2519 133.619 14.1753C133.587 9.99744 131.411 5.91848 127.987 3.53418C125.269 1.58558 121.805 0.762299 118.495 1.20334Z" fill="#606060"/>
<path id="Vector_14" d="M153.292 0.185166C156.529 -0.346757 159.94 0.292085 162.776 1.93864C166.286 3.95139 168.878 7.49844 169.686 11.4678C170.696 16.0814 169.229 21.152 165.893 24.4959C163.548 26.947 160.293 28.484 156.922 28.8021C152.71 29.2191 148.339 27.658 145.375 24.6296C142.996 22.2961 141.51 19.0965 141.2 15.7847C140.791 11.6309 142.301 7.3247 145.249 4.36571C147.38 2.14446 150.256 0.671648 153.292 0.185166ZM153.776 1.20624C151.464 1.51898 149.237 2.44918 147.396 3.8819C144.239 6.2956 142.266 10.1928 142.231 14.1675C142.141 17.2495 143.196 20.3368 145.118 22.7398C147.591 25.8912 151.555 27.8184 155.562 27.773C159.574 27.8211 163.543 25.8912 166.018 22.7371C167.937 20.3368 168.991 17.2521 168.902 14.1782C168.87 10.0645 166.764 6.04434 163.428 3.64935C160.686 1.62056 157.149 0.751837 153.776 1.20624Z" fill="#606060"/>
<path id="Vector_15" d="M122.561 12.3017C122.069 12.4701 121.869 11.4197 122.427 11.4785C122.502 11.7484 122.548 12.0237 122.561 12.3017Z" fill="#606060"/>
<path id="Vector_16" d="M124.403 11.7427L124.622 11.8309C124.595 11.9431 124.542 12.165 124.515 12.2746C124.486 12.1409 124.432 11.8763 124.403 11.7427Z" fill="#606060"/>
<path id="Vector_17" d="M125.592 11.5986C126.073 12.5636 125.758 13.6675 125.817 14.6966C125.761 15.7284 126.063 16.835 125.584 17.7999C125.755 15.7364 125.755 13.6622 125.592 11.5986Z" fill="#606060"/>
<path id="Vector_18" d="M54.2717 13.1221C55.0415 13.7582 55.2901 14.8034 55.2714 15.763C55.2581 17.1369 55.2741 18.5108 55.1752 19.8794C54.9266 17.6394 55.7151 15.076 54.2717 13.1221Z" fill="#606060"/>
<path id="Vector_19" d="M117.383 15.5386C117.448 15.6642 117.579 15.9128 117.643 16.0384L117.4 16.009L117.266 15.7551L117.383 15.5386Z" fill="#606060"/>
</g>
<g id="#ffffffff">
<path id="Vector_20" d="M13.8029 9.03761C14.7625 7.97911 16.3235 8.1689 17.5985 8.31056C17.5932 8.95475 17.5932 9.59894 17.5958 10.2431C16.9543 10.2966 16.2166 10.1362 15.6526 10.4971C15.3131 11.1332 15.4601 11.8817 15.42 12.574C16.123 12.5713 16.8287 12.5713 17.5317 12.5766C17.4649 13.2877 17.3713 13.9987 17.2724 14.707C16.6576 14.7097 16.0428 14.7097 15.428 14.7097C15.4254 16.5487 15.4334 18.385 15.4227 20.224C14.6609 20.2214 13.9018 20.2214 13.1426 20.2187C13.1453 18.3823 13.1426 16.546 13.1453 14.7097C12.5305 14.7097 11.9157 14.7097 11.301 14.7097C11.301 13.9987 11.301 13.2903 11.301 12.5793C11.9157 12.574 12.5305 12.5713 13.1453 12.5606C13.1827 11.3791 12.9181 9.98652 13.8029 9.03761Z" fill="white"/>
<path id="Vector_21" d="M115.125 10.5985C115.67 9.64422 116.779 9.19516 117.838 9.14704C119.551 9.09091 121.273 9.04547 122.983 9.19783C124.256 9.33415 125.384 10.3151 125.592 11.5982C125.755 13.6617 125.755 15.7359 125.584 17.7995C125.389 18.7858 124.657 19.6358 123.697 19.9486C122.24 20.3789 120.706 20.1784 119.212 20.2265C117.881 20.2265 116.304 20.2132 115.376 19.0932C114.384 17.8529 114.644 16.169 114.609 14.6935C114.644 13.3276 114.425 11.8414 115.125 10.5985ZM115.929 11.4378C115.569 12.94 115.718 14.501 115.694 16.0326C115.734 17.0617 115.758 18.433 116.897 18.8794C118.346 19.2696 119.872 19.1199 121.358 19.1413C122.318 19.0691 123.491 19.1841 124.154 18.3367C124.715 17.5161 124.598 16.4496 124.638 15.5061C124.585 14.4315 124.761 13.3249 124.515 12.2744C124.542 12.1648 124.595 11.943 124.622 11.8307L124.403 11.7425L124.523 11.5046C124.194 11.1331 123.943 10.6305 123.446 10.4568C121.997 9.95963 120.441 10.2323 118.945 10.1601C117.854 10.1654 116.4 10.2537 115.929 11.4378Z" fill="white"/>
<path id="Vector_22" d="M44.6945 9.4308C45.499 8.98976 46.7206 9.40675 46.8302 10.3851C47.028 11.7215 45.0232 12.2936 44.2855 11.3072C43.8177 10.7352 44.0075 9.73552 44.6945 9.4308Z" fill="white"/>
<path id="Vector_23" d="M150.344 10.3341C151.346 10.0909 152.391 10.1924 153.415 10.1523C155.653 10.1764 157.898 10.0802 160.132 10.2459C160.948 10.3074 161.597 10.9516 161.715 11.7561C161.985 13.5203 161.961 15.3272 161.798 17.1021C161.747 17.9788 161.231 18.9865 160.25 19.0347C157.906 19.3287 155.53 19.2084 153.175 19.2004C152.13 19.163 151.052 19.2137 150.055 18.8529C149.302 18.5054 149.101 17.5886 149.042 16.8401C148.927 15.231 148.887 13.6058 149.098 12.0047C149.197 11.283 149.577 10.5159 150.344 10.3341ZM154.156 12.812C154.153 13.9587 154.161 15.1027 154.145 16.2467C155.262 15.672 156.372 15.0786 157.505 14.5307C156.369 13.9961 155.276 13.376 154.156 12.812Z" fill="white"/>
<path id="Vector_24" d="M79.6276 10.7617C80.908 10.874 82.199 10.8098 83.4847 10.8205C84.284 11.9726 85.1794 13.0578 85.9439 14.2339C86.8393 13.0364 87.9165 11.9886 88.8467 10.8152C89.4562 10.8232 90.0656 10.8179 90.6777 10.8045C89.5658 11.9966 88.5581 13.285 87.4488 14.4798C87.2189 14.7899 86.6816 15.1775 87.0665 15.5784C88.534 17.4682 89.9293 19.4142 91.4235 21.2852C90.1939 21.2345 88.9643 21.2532 87.7348 21.2585C86.834 20.0289 85.9225 18.8074 85.0057 17.5912C83.9204 18.794 82.878 20.037 81.7981 21.2425C81.1673 21.2505 80.5338 21.2612 79.9056 21.2959C81.3731 19.7563 82.6962 18.0884 84.1396 16.5273C82.6321 14.6081 81.2608 12.574 79.6276 10.7617ZM81.7981 11.7962C84.0086 14.5493 86.1043 17.3934 88.2774 20.176C88.6088 20.1893 88.943 20.2054 89.2744 20.2241C87.1333 17.4682 85.0458 14.6669 82.9715 11.8576C82.5813 11.8363 82.1883 11.8175 81.7981 11.7962Z" fill="white"/>
<path id="Vector_25" d="M122.427 11.4781C122.692 10.6709 123.9 11.005 123.865 11.8069C123.702 12.4083 123.072 12.5767 122.561 12.3014C122.548 12.0234 122.502 11.7481 122.427 11.4781Z" fill="white"/>
<path id="Vector_26" d="M117.383 15.5383C116.774 13.7127 118.37 11.6064 120.302 11.7961C122.435 11.7667 123.863 14.4932 122.601 16.2279C121.535 18.0295 118.544 17.9467 117.643 16.0382C117.579 15.9125 117.448 15.6639 117.383 15.5383ZM119.444 13.0391C118.747 13.3037 118.487 14.0468 118.295 14.7017C118.498 15.2897 118.717 15.9633 119.335 16.2413C120.284 16.7679 121.642 16.2172 121.882 15.1374C122.358 13.7902 120.706 12.3147 119.444 13.0391Z" fill="white"/>
<path id="Vector_27" d="M47.878 12.6569C48.6932 12.6543 49.5085 12.6543 50.3264 12.665C50.3157 12.8841 50.2944 13.3225 50.2837 13.539C51.1952 12.2801 53.085 12.2533 54.2718 13.122C55.7152 15.076 54.9266 17.6394 55.1752 19.8793C54.3519 19.8793 53.5287 19.882 52.7054 19.8793C52.6813 18.5001 52.7508 17.1208 52.676 15.7442C52.6626 15.1161 52.2617 14.4906 51.5988 14.4184C50.9118 14.4585 50.273 15.0519 50.3238 15.7683C50.2837 17.1369 50.3264 18.5081 50.3131 19.8767C49.4711 19.882 48.6291 19.882 47.7871 19.874C47.9047 17.4683 47.9208 15.0626 47.878 12.6569Z" fill="white"/>
<path id="Vector_28" d="M44.1786 19.8767C44.1813 17.471 44.1706 15.0627 44.1866 12.6543C45.0046 12.657 45.8225 12.657 46.6431 12.657C46.6431 15.0653 46.6431 17.4737 46.6431 19.8794C45.8198 19.882 44.9992 19.882 44.1786 19.8767Z" fill="white"/>
</g>
</g>
</svg>
